<svg width="20" height="20" viewBox="0 0 20 20" fill="none" xmlns="http://www.w3.org/2000/svg">
<path d="M10 19.7936C9.71527 19.7936 9.44077 19.6904 9.22684 19.5031C8.41888 18.7966 7.63992 18.1327 6.95267 17.547L6.94916 17.544C4.93423 15.8269 3.19427 14.3441 1.98364 12.8833C0.630341 11.2503 0 9.70203 0 8.01059C0 6.36722 0.563507 4.8511 1.58661 3.74133C2.62192 2.61844 4.04251 2 5.58716 2C6.74164 2 7.79892 2.36499 8.72955 3.08475C9.19922 3.44806 9.62494 3.8927 10 4.41135C10.3752 3.8927 10.8008 3.44806 11.2706 3.08475C12.2012 2.36499 13.2585 2 14.413 2C15.9575 2 17.3782 2.61844 18.4135 3.74133C19.4366 4.8511 20 6.36722 20 8.01059C20 9.70203 19.3698 11.2503 18.0165 12.8832C16.8059 14.3441 15.0661 15.8268 13.0515 17.5437C12.363 18.1302 11.5828 18.7952 10.773 19.5034C10.5592 19.6904 10.2846 19.7936 10 19.7936V19.7936ZM5.58716 3.17157C4.37363 3.17157 3.25882 3.65588 2.44781 4.5354C1.62476 5.42819 1.17142 6.66232 1.17142 8.01059C1.17142 9.43317 1.70013 10.7054 2.88559 12.1358C4.03137 13.5184 5.73563 14.9707 7.70889 16.6524L7.71255 16.6555C8.4024 17.2434 9.18442 17.9099 9.99832 18.6216C10.8171 17.9085 11.6003 17.2409 12.2916 16.6521C14.2647 14.9704 15.9688 13.5184 17.1146 12.1358C18.2999 10.7054 18.8286 9.43317 18.8286 8.01059C18.8286 6.66232 18.3752 5.42819 17.5522 4.5354C16.7413 3.65588 15.6264 3.17157 14.413 3.17157C13.524 3.17157 12.7078 3.45416 11.9872 4.01141C11.3449 4.50824 10.8975 5.13629 10.6352 5.57574C10.5003 5.80173 10.2629 5.93661 10 5.93661C9.73709 5.93661 9.49966 5.80173 9.36478 5.57574C9.10263 5.13629 8.65524 4.50824 8.01285 4.01141C7.29218 3.45416 6.47598 3.17157 5.58716 3.17157V3.17157Z" fill="black"/>
</svg>
