<?xml version="1.0" standalone="no"?>
<!DOCTYPE svg PUBLIC "-//W3C//DTD SVG 20010904//EN"
 "http://www.w3.org/TR/2001/REC-SVG-20010904/DTD/svg10.dtd">
<svg version="1.0" xmlns="http://www.w3.org/2000/svg"
 width="24.000000pt" height="24.000000pt" viewBox="0 0 24.000000 24.000000"
 preserveAspectRatio="xMidYMid meet">

<g transform="translate(0.000000,24.000000) scale(0.100000,-0.100000)"
fill="#000000" stroke="none">
<path d="M17 220 c13 -11 23 -31 23 -43 0 -12 3 -38 6 -59 6 -32 4 -37 -17
-40 -29 -4 -37 -28 -11 -35 11 -2 22 -13 25 -24 7 -25 37 -24 44 1 7 27 49 27
58 0 8 -24 33 -26 42 -4 3 9 15 20 27 24 14 6 -17 9 -86 9 -65 1 -108 5 -108
11 0 6 38 10 94 10 l95 0 15 54 c9 30 16 57 16 60 0 3 -42 6 -94 6 -90 0 -95
1 -98 23 -2 15 -11 23 -28 25 l-25 4 22 -22z m199 -67 c-3 -10 -8 -31 -12 -46
-6 -27 -7 -28 -73 -25 l-66 3 -6 43 -5 42 84 0 c75 0 83 -2 78 -17z m-146
-123 c0 -5 -5 -10 -11 -10 -5 0 -7 5 -4 10 3 6 8 10 11 10 2 0 4 -4 4 -10z
m105 0 c3 -5 1 -10 -4 -10 -6 0 -11 5 -11 10 0 6 2 10 4 10 3 0 8 -4 11 -10z"/>
</g>
</svg>
